<svg height="32" viewBox="0 0 32 32" width="32" xmlns="http://www.w3.org/2000/svg"><g fill="none" fill-rule="evenodd"><path d="m0 0h32v32h-32z"/><path d="m25 19c1.6568542 0 3 1.3431458 3 3s-1.3431458 3-3 3c-.4255032 0-.8303163-.088585-1.1970029-.2483187l.1510201-.1535898c-2.0019208 2.095808-4.8254409 3.4019085-7.9540172 3.4019085-2.4856687 0-4.7787745-.82446-6.62077369-2.2148364l1.34526739-1.4926507c1.4822983 1.0741811 3.304944 1.7074871 5.2755063 1.7074871 2.4734756 0 4.7138998-.9978116 6.340709-2.612871-.218215-.4150248-.340709-.8867719-.340709-1.387129 0-1.6568542 1.3431458-3 3-3zm-13.6738961-11.96052288.5601091 1.95360233c-2.90165702 1.49381895-4.886213 4.51861085-4.886213 8.00692055 0 .6908773.07784579 1.3635728.22524445 2.0097934 1.5529592.115099 2.77475555 1.4099699 2.77475555 2.9902066 0 1.6568542-1.34314575 3-3 3s-3-1.3431458-3-3c0-1.024088.51313195-1.9283275 1.29631051-2.4696334l.04984935.210015c-.22656421-.8748982-.34615986-1.7936734-.34615986-2.7403816 0-4.4039297 2.5879975-8.20340017 6.3261039-9.96052288zm13.6738961 13.96052288c-.5522847 0-1 .4477153-1 1s.4477153 1 1 1 1-.4477153 1-1-.4477153-1-1-1zm-18 0c-.55228475 0-1 .4477153-1 1s.44771525 1 1 1 1-.4477153 1-1-.44771525-1-1-1zm14.6-7.9407361v.5991857h-2.6099206c-.310689 0-.5881136.1976631-.6513159.4814553-.0518923.2329823-.0818302.4857928-.0851567.757812.0033265.2726387.0332644.5248296.0851567.7578119.0632023.2837922.3406269.4814553.6513159.4814553h2.6099206v.6022839c-.6054111.7590512-1.567416 1.256617-2.6611477 1.256617-.1144293 0-.2268628-.0055767-.3379657-.0161105-.630692-.0613437-1.261384.1053377-1.7104527.5223511l-3.798123 3.5374884c-.4224572.3934673-1.1023804.4895105-1.5873745.1642029-.6173863-.4145349-.6686134-1.2219175-.1536813-1.701514l3.6996605-3.4457825c.4657008-.4337435.7218363-1.0478005.6094028-1.6525629-.0751774-.3978048-.0658634-.8241127.05788-1.2677704.3346393-1.198991 1.4336933-2.1383556 2.7509614-2.3062763 1.2840037-.1642029 2.4402724.361866 3.1308402 1.2293531zm-5.6-9.0592639c1.4506333 0 2.6607899 1.02960304 2.9395624 2.39790164l-.2177755-.05782088c4.7588654 1.21074601 8.2782131 5.52433874 8.2782131 10.65991924 0 .2329276-.0072398.4641643-.0215066.6934972l-1.9878854-.2786357c.0062388-.1375056.009392-.2758153.009392-.4148615 0-4.0468068-2.6709036-7.46979064-6.3460707-8.60231125-.5021653.9533659-1.5022626 1.60231125-2.6539293 1.60231125-1.6568542 0-3-1.34314575-3-3s1.3431458-3 3-3zm0 2c-.5522847 0-1 .44771525-1 1s.4477153 1 1 1 1-.44771525 1-1-.4477153-1-1-1z" fill="#000" fill-rule="nonzero"/></g></svg>