<svg height="32" viewBox="0 0 32 32" width="32" xmlns="http://www.w3.org/2000/svg"><g fill="none" fill-rule="evenodd"><path d="m0 0h32v32h-32z"/><path d="m16 19c-1.657 0-3-1.343-3-3s1.343-3 3-3 3 1.343 3 3-1.343 3-3 3m0-15c6.617 0 12 5.383 12 12 0 2.235-.61 4.367-1.758 6.242l1.758 1.758h-5v-5l1.783 1.783c.799-1.458 1.217-3.084 1.217-4.783 0-5.514-4.486-10-10-10s-10 4.486-10 10 4.486 10 10 10c1.711 0 3.4-.439 4.882-1.271l.118-.054v2.211c-1.563.718-3.267 1.114-5 1.114-6.617 0-12-5.383-12-12s5.383-12 12-12zm0 4c.607.007 1 .298 1 .741v1.687c0 .373.233.712.587.831.219.074.432.163.636.264.337.169.742.097 1.008-.169l.422-.421.59-.59.182-.183c.314-.313.798-.242 1.232.183l.0917792.1009408c.3418717.4065089.3801439.8411361.0912208 1.1300592l-.183.184-.59.589-.421.422c-.267.265-.338.671-.17 1.008.103.204.191.416.265.636.12.355.458.587.832.587h1.685c.445 0 .736.393.742 1-.006.607-.297 1-.742 1h-1.685c-.374 0-.712.232-.832.587-.074.219-.162.432-.265.636-.168.337-.097.742.17 1.008l.421.422.59.589.183.184c.313.313.242.797-.183 1.23-.434.426-.918.497-1.232.184l-.182-.183-.59-.59-.422-.421c-.266-.266-.671-.338-1.008-.169-.204.101-.417.19-.636.264-.354.119-.587.458-.587.831v1.687c0 .443-.393.734-1 .741-.607-.007-1-.298-1-.741v-1.687c0-.373-.233-.712-.587-.831-.219-.074-.432-.163-.636-.264-.337-.169-.742-.097-1.008.169l-.422.421-.59.59-.182.183c-.314.313-.798.242-1.232-.183-.425-.434-.496-.918-.183-1.231l.183-.184.59-.589.421-.422c.267-.266.338-.671.17-1.008-.103-.204-.191-.417-.265-.636-.12-.355-.458-.587-.832-.587h-1.685c-.445 0-.736-.393-.742-1 .006-.607.297-1 .742-1h1.685c.374 0 .712-.232.832-.587.074-.22.162-.432.265-.636.168-.337.097-.743-.17-1.008l-.421-.422-.59-.589-.183-.184c-.313-.313-.242-.797.183-1.231.434-.425.918-.496 1.232-.183l.182.183.59.59.422.421c.266.266.671.338 1.008.169.204-.101.417-.19.636-.264.354-.119.587-.458.587-.831v-1.687c0-.443.393-.734 1-.741z" fill="#000"/></g></svg>