<svg height="32" viewBox="0 0 32 32" width="32" xmlns="http://www.w3.org/2000/svg"><g fill="none" fill-rule="evenodd"><path d="m0 0h32v32h-32z"/><path d="m29 26.0000083v2h-26v-2zm-9.2549891-9.8811862 1.2733783.3205448c1.684563.4245629 3.212846 1.0636262 4.5513774 1.9011518.8318642.5209632 1.3610241 1.4015 1.4239196 2.3689441l.0063138.1945668v3.0959871h-2v-3.0959871c0-.3487875-.1839642-.6757105-.4914285-.8682632-1.028665-.6436406-2.1978258-1.156256-3.4888667-1.5253268l-.4898171-.1316485-.1728877-.0437911-4.386 4.3862385-4.385-4.3842385-.1738509.0435295c-1.2979785.3282136-2.48163807.7972085-3.5318277 1.3945186l-.38752731.2299817c-.2689099.1666604-.44452295.4393678-.4842245.7397827l-.00856959.1302172v3.124987h-2v-3.124987c0-1.0469169.54687661-2.0169532 1.43969484-2.5702886 1.18995355-.7365422 2.52829934-1.3175867 3.99173056-1.7318042l.4924112-.1318781 1.2756096-.3197796 3.7715538 3.7707208zm-3.6308257-12.11804919.2890297.007042.2907152.01545295c2.0379377.14121849 4.1062611 1.01312729 4.2414292 4.92694725l.0063407.30076301c-.042 4.09998288-1.993 6.74897188-4.971 6.74897188s-4.929-2.647989-4.971-6.74797188c.0470204-4.56194018 2.5746072-5.22600072 4.8303922-5.25120521zm2.8114085 4.72370933-.2888176.18263979c-1.6667645 1.01094231-3.5191103 1.55910367-5.5427086 1.64020747.3186208 2.2623609 1.4168969 3.4526205 2.8766325 3.4526205 1.6666932 0 2.8625361-1.5528748 2.9645621-4.46310585l.0064379-.28586603-.0042977-.231456zm-2.9635937-2.72470933c-2.0046458.00019554-2.7883514.46051957-2.9363768 2.54686729 1.9906194-.07976983 3.7569502-.69537509 5.3221322-1.85184858-.4157729-.49205208-1.0740248-.6617276-2.0576781-.69028561z" fill="#000" fill-rule="nonzero"/></g></svg>