<svg height="32" viewBox="0 0 32 32" width="32" xmlns="http://www.w3.org/2000/svg"><g fill="none" fill-rule="evenodd"><path d="m0 0h32v32h-32z"/><path d="m16.3533043 26h-10.29459181v-20h4.11742501 2.0587125 4.1174249v3c-3.9733151 0-7.20549368 3.141-7.20549368 7s3.23217858 7 7.20549368 7zm5.1457519-10c0 2.045-1.2743431 3.803-3.0880688 4.576-.6320247.27-1.3258108.424-2.0576831.424-2.8389645 0-5.1478106-2.243-5.1478106-5s2.3088461-5 5.1467812-5c.7318723 0 1.4266878.154 2.0587125.424 1.8137257.773 3.0880688 2.531 3.0880688 4.576zm.9192151 3.762c.7174613-1.088 1.1394973-2.377 1.1394973-3.762 0-3.164-2.1750297-5.842-5.1467812-6.705v-3.295c0-1.103-.9233325-2-2.0587125-2h-10.29356241c-1.13537994 0-2.05871249.897-2.05871249 2v20c0 1.103.92333255 2 2.05871249 2h10.29356241c1.13538 0 2.0587125-.897 2.0587125-2v-3.295c.4426232-.129.866718-.298 1.2691963-.503l5.0809024 4.936c.6546706.635 1.7066726.79 2.4570733.264.9552426-.668 1.0355324-1.971.2388107-2.746z" fill="#000"/></g></svg>